<svg width="24" height="24" viewBox="0 0 24 24" fill="none" xmlns="http://www.w3.org/2000/svg">
<g clip-path="url(#clip0_142_17)">
<path d="M1.61699 3.62808C1.22324 3.72651 0.92793 3.89526 0.62793 4.19526C0.323242 4.49995 0.135742 4.83276 0.0513672 5.24058C-0.0236328 5.59683 -0.0236328 18.4125 0.0513672 18.7593C0.224805 19.5609 0.881055 20.2171 1.67793 20.3859C2.02949 20.4609 21.9701 20.4609 22.3217 20.3859C23.1186 20.2171 23.7795 19.5515 23.9482 18.7593C24.0232 18.4031 24.0232 5.58745 23.9482 5.24058C23.7748 4.43433 23.1232 3.78276 22.3217 3.61401C21.942 3.53433 1.93574 3.54839 1.61699 3.62808ZM17.0389 9.52026C14.5357 12.0187 12.4357 14.1 12.3654 14.1375C12.2014 14.2218 11.7982 14.2218 11.6342 14.1375C11.5639 14.1 9.46387 12.0187 6.96074 9.52026L2.41387 4.9687H11.9998H21.5857L17.0389 9.52026ZM4.43887 15.0328L1.40605 18.0703V12V5.92964L4.43887 8.96714L7.47637 12L4.43887 15.0328ZM22.5936 12.0093V18.0703L19.5607 15.0375L16.5232 12L19.5467 8.97651C21.2107 7.31245 22.5748 5.95308 22.5795 5.95308C22.5889 5.95308 22.5936 8.6812 22.5936 12.0093ZM9.55762 14.1234C10.5654 15.1218 10.6967 15.2343 11.0342 15.4031L11.4092 15.5859H11.9951C12.5811 15.5859 12.5904 15.5859 12.9561 15.4078C13.2982 15.2437 13.4061 15.15 14.4467 14.1234L15.567 13.0125L18.5764 16.0218L21.5857 19.0312H11.9998H2.41387L5.41387 16.0312C7.06387 14.3812 8.42324 13.0312 8.43262 13.0312C8.44668 13.0312 8.95293 13.5234 9.55762 14.1234Z" fill="#48B2E7"/>
</g>
<defs>
<clipPath id="clip0_142_17">
<rect width="24" height="24" fill="white"/>
</clipPath>
</defs>
</svg>
