<svg width="24" height="24" viewBox="0 0 24 24" fill="none" xmlns="http://www.w3.org/2000/svg">
<g clip-path="url(#clip0_142_20)">
<path d="M1.61699 3.62832C1.22324 3.72676 0.92793 3.89551 0.62793 4.19551C0.323242 4.50019 0.135742 4.83301 0.0513672 5.24082C-0.0236328 5.59707 -0.0236328 18.4127 0.0513672 18.7596C0.224805 19.5611 0.881055 20.2174 1.67793 20.3861C2.02949 20.4611 21.9701 20.4611 22.3217 20.3861C23.1186 20.2174 23.7795 19.5518 23.9482 18.7596C24.0232 18.4033 24.0232 5.58769 23.9482 5.24082C23.7748 4.43457 23.1232 3.78301 22.3217 3.61426C21.942 3.53457 1.93574 3.54863 1.61699 3.62832ZM17.0389 9.52051C14.5357 12.0189 12.4357 14.1002 12.3654 14.1377C12.2014 14.2221 11.7982 14.2221 11.6342 14.1377C11.5639 14.1002 9.46387 12.0189 6.96074 9.52051L2.41387 4.96894H11.9998H21.5857L17.0389 9.52051ZM4.43887 15.033L1.40605 18.0705V12.0002V5.92988L4.43887 8.96738L7.47637 12.0002L4.43887 15.033ZM22.5936 12.0096V18.0705L19.5607 15.0377L16.5232 12.0002L19.5467 8.97676C21.2107 7.31269 22.5748 5.95332 22.5795 5.95332C22.5889 5.95332 22.5936 8.68144 22.5936 12.0096ZM9.55762 14.1236C10.5654 15.1221 10.6967 15.2346 11.0342 15.4033L11.4092 15.5861H11.9951C12.5811 15.5861 12.5904 15.5861 12.9561 15.408C13.2982 15.2439 13.4061 15.1502 14.4467 14.1236L15.567 13.0127L18.5764 16.0221L21.5857 19.0314H11.9998H2.41387L5.41387 16.0314C7.06387 14.3814 8.42324 13.0314 8.43262 13.0314C8.44668 13.0314 8.95293 13.5236 9.55762 14.1236Z" fill="#707B81"/>
</g>
<defs>
<clipPath id="clip0_142_20">
<rect width="24" height="24" fill="white"/>
</clipPath>
</defs>
</svg>
